<svg width="270" height="394" viewBox="0 0 270 394" fill="none" xmlns="http://www.w3.org/2000/svg">
<path d="M43.4149 53.1842C-30.9851 150.784 8.8348 226.578 39.8348 251.912L47.8347 258.412C44.8347 258.078 36.1443 257.459 32.3347 262.412C27.3347 268.912 32.3347 280.412 35.9149 284.684C54.9149 315.351 93.4149 377.284 95.4149 379.684C97.4149 382.084 103.248 385.684 105.915 387.184C129.915 395.684 170.502 394.184 186.335 387.184C230.335 367.684 253.835 334.912 258.835 310.412C292.303 202.741 233.557 171.941 200 170C235.6 147.6 241.667 87.8333 236.5 60C236.5 60 234 30.5828 186.835 9.91167C122.035 -18.4883 64.7482 27.8509 43.4149 53.1842Z" fill="black" stroke="black"/>
<path d="M54.4147 75.1842C10.8147 130.784 27.2481 193.684 40.9147 218.184C64.1147 261.384 92.9148 262.184 104.915 262.184C117.835 262.184 139.335 258.412 161.915 241.684C173.581 235.184 198.315 228.184 203.915 252.184C209.515 276.184 192.581 290.517 183.415 294.684C167.415 301.957 134.115 304.384 118.915 303.184C103.415 303.184 85.9148 291.517 76.9148 283.184C75.5815 281.851 72.2148 279.484 69.4148 280.684C66.9148 282.184 67.2481 285.851 67.9148 288.184L123.415 372.684C134.748 375.351 165.915 373.184 199.915 343.184C242.415 305.684 240.915 271.184 241.415 268.184C243.415 239.931 236.581 224.079 232.915 219.684C220.915 205.684 202.947 200.684 185.415 200.684C158.915 200.684 147.835 213.184 137.335 222.184C130.835 226.684 121.415 231.984 103.415 235.184C85.4148 238.384 74.5815 219.184 71.4148 209.184C66.2148 169.984 86.2765 135.684 98.9148 119.184C116.915 95.6841 131.581 92.5174 141.415 93.1841C150.248 93.8507 167.815 99.5841 167.415 117.184C167.015 134.784 150.506 137.887 135.835 142.912C132.915 143.912 124.335 148.412 124.835 144.412L132.915 130.412C135.915 125.412 141.159 99.4712 139.835 102.412C133.755 115.912 114.737 131.844 111.335 136.912C98.9148 155.412 92.3347 162.912 95.3347 173.412L88.3347 194.412L83.8347 198.912C82.8347 201.912 88.8347 213.412 97.8347 213.412C95.3347 200.412 104.335 190.412 107.335 191.412C106.428 197.152 104.335 195.912 106.335 201.912C105.98 205.33 102.699 205.753 100.835 209.184C108.835 212.184 117.835 204.974 117.835 202.912C117.835 180.912 126.755 193.412 133.835 178.412C138.053 169.474 162.835 169.912 178.835 157.912C204.575 138.606 207.657 128.59 215.415 94.6841C226.215 47.4841 187.915 25.0175 167.415 19.6842C147.915 15.0175 98.0147 19.5842 54.4147 75.1842Z" fill="white" stroke="white"/>
<path d="M100.735 175.249L105.727 163.825L107.198 170.185L100.735 175.249Z" fill="black" stroke="black"/>
</svg>
