<svg width="13" height="13" viewBox="0 0 13 13" fill="none" xmlns="http://www.w3.org/2000/svg">
<path d="M5.56215 1.53451C5.88431 0.663889 7.11569 0.663888 7.43785 1.53451L8.36611 4.04308C8.46739 4.3168 8.6832 4.53261 8.95692 4.63389L11.4655 5.56215C12.3361 5.88431 12.3361 7.11569 11.4655 7.43785L8.95692 8.36611C8.6832 8.46739 8.46739 8.6832 8.36611 8.95692L7.43785 11.4655C7.11569 12.3361 5.88431 12.3361 5.56215 11.4655L4.63389 8.95692C4.53261 8.6832 4.3168 8.46739 4.04308 8.36611L1.53451 7.43785C0.663889 7.11569 0.663888 5.88431 1.53451 5.56215L4.04308 4.63389C4.3168 4.53261 4.53261 4.3168 4.63389 4.04308L5.56215 1.53451Z" fill="#091F5B"/>
</svg>
