<svg width="100" height="100" viewBox="0 0 100 100" fill="none" xmlns="http://www.w3.org/2000/svg">
<path d="M42.5611 81.5383C43.2493 81.4375 43.8848 81.9466 43.98 82.6754L44.098 83.4977C44.2834 84.6847 44.5412 85.9042 44.8757 87.1601L49.0147 84.6166L49.0466 100L36.4502 92.3382L42.6323 88.5392C42.0943 86.6456 41.7192 84.8142 41.4873 83.0397C41.3923 82.3111 41.873 81.6392 42.5611 81.5383Z" fill="#091F5B"/>
<path d="M42.9567 67.6941C43.2191 67.0787 43.8845 66.7621 44.5022 66.9811C45.1197 67.2003 45.4707 67.8772 45.3302 68.5358L45.2958 68.6672L45.0428 69.4999C44.4745 71.4524 44.0586 73.4773 43.8535 75.5952C43.7825 76.327 43.1649 76.8594 42.4738 76.7844C41.7827 76.7093 41.2801 76.0552 41.3509 75.3233C41.5748 73.0114 42.0275 70.8146 42.6385 68.7154L42.91 67.8216L42.9567 67.6941Z" fill="#091F5B"/>
<path d="M49.2211 54.3077C49.5769 53.6758 50.3492 53.4691 50.946 53.8459C51.5052 54.1991 51.7117 54.9397 51.4423 55.5515L51.3821 55.6725L50.5049 57.2416C49.7774 58.554 49.0618 59.8809 48.3832 61.2357L47.9802 62.0515L47.9164 62.1699C47.5692 62.7365 46.8656 62.9432 46.2861 62.6278C45.6685 62.2914 45.4256 61.488 45.743 60.8337C46.8428 58.5673 48.0449 56.397 49.2211 54.3077Z" fill="#091F5B"/>
<path d="M55.4818 41.2896C55.7327 40.669 56.3923 40.3383 57.0139 40.5441C57.6357 40.7501 57.9996 41.4202 57.8714 42.0819L57.8395 42.2133L57.5606 43.1045C56.875 45.177 55.9542 47.2074 54.9265 49.2181C54.5959 49.865 53.8323 50.1066 53.2213 49.7567C52.6483 49.4283 52.4131 48.6965 52.6586 48.0732L52.7139 47.9509L53.1304 47.1195C53.9462 45.4645 54.6497 43.8427 55.1845 42.2263L55.4376 41.4184L55.4818 41.2896Z" fill="#091F5B"/>
<path d="M54.9192 26.2991C55.5357 25.9599 56.2955 26.2147 56.6158 26.8676L56.8468 27.3516C57.9682 29.7698 58.5692 32.112 58.7486 34.4058C58.8057 35.1387 58.2907 35.7825 57.5987 35.8435C56.9064 35.9042 56.2986 35.3588 56.2411 34.6257C56.0791 32.5545 55.5107 30.3938 54.3835 28.0958L54.3295 27.9709C54.0946 27.3435 54.3415 26.6171 54.9192 26.2991Z" fill="#091F5B"/>
<path d="M48.1436 17.8046C48.6274 17.2766 49.4239 17.2638 49.9226 17.776C50.8293 18.7077 51.6573 19.6249 52.4104 20.529C52.8699 21.0806 52.8204 21.9222 52.2999 22.409C51.7788 22.8957 50.983 22.8437 50.5234 22.2919C49.8168 21.4437 49.0346 20.5762 48.1707 19.6885C47.6721 19.1762 47.66 18.3327 48.1436 17.8046Z" fill="#091F5B"/>
<path fill-rule="evenodd" clip-rule="evenodd" d="M71.9458 0C72.826 4.73921e-05 73.6189 0.101962 74.3231 0.305743C75.0313 0.505233 75.6337 0.80241 76.1291 1.19695C76.6244 1.59154 77.0055 2.08398 77.2716 2.67362C77.5377 3.25903 77.6709 3.93574 77.6709 4.70323C77.6709 5.47073 77.5377 6.14961 77.2716 6.73935C77.0055 7.32466 76.6244 7.81493 76.1291 8.20952C75.6337 8.60406 75.0313 8.90341 74.3231 9.10723C73.6189 9.30668 72.826 9.40642 71.9458 9.40647C71.0656 9.40647 70.2687 9.30662 69.5562 9.10723C68.848 8.90346 68.2437 8.60401 67.7441 8.20952C67.2446 7.81493 66.8595 7.3247 66.5893 6.73935C66.319 6.14955 66.1838 5.47084 66.1838 4.70323C66.1838 3.93563 66.319 3.25909 66.5893 2.67362C66.8595 2.08393 67.2446 1.59154 67.7441 1.19695C68.2437 0.802459 68.848 0.505182 69.5562 0.305743C70.2687 0.102023 71.0656 0 71.9458 0ZM71.9458 1.91902C71.4874 1.91902 71.0836 1.95814 70.7357 2.03612C70.3878 2.10979 70.0865 2.21405 69.8327 2.34836C69.5789 2.48272 69.3658 2.64123 69.1938 2.82324C69.0219 3.00097 68.8846 3.19414 68.7822 3.4022C68.6799 3.60599 68.6062 3.82075 68.5611 4.04621C68.5202 4.26739 68.4997 4.4864 68.4997 4.70323C68.4997 4.92441 68.5202 5.14775 68.5611 5.37327C68.6062 5.59873 68.6799 5.81566 68.7822 6.02378C68.8846 6.22751 69.0219 6.41851 69.1938 6.59624C69.3658 6.77391 69.5789 6.93025 69.8327 7.06461C70.0865 7.19459 70.3878 7.29885 70.7357 7.37686C71.0836 7.4505 71.4874 7.48745 71.9458 7.48745C72.6294 7.4874 73.1929 7.405 73.6351 7.24025C74.0771 7.07548 74.4256 6.86067 74.6793 6.59624C74.9372 6.33178 75.1155 6.03449 75.2138 5.70503C75.3161 5.37116 75.3673 5.0371 75.3673 4.70323C75.3673 4.36937 75.3161 4.03748 75.2138 3.70794C75.1155 3.37415 74.9372 3.07469 74.6793 2.81023C74.4256 2.5458 74.0771 2.33099 73.6351 2.16622C73.1929 2.00147 72.6294 1.91907 71.9458 1.91902Z" fill="#091F5B"/>
<path fill-rule="evenodd" clip-rule="evenodd" d="M5.71404 0.227681C6.32805 0.227726 6.84855 0.294946 7.27431 0.429341C7.70405 0.563771 8.05252 0.754707 8.31859 1.0018C8.58869 1.24893 8.78345 1.54838 8.90216 1.89951C9.02496 2.2464 9.08644 2.63468 9.08644 3.06393C9.08644 3.44114 9.0352 3.77088 8.93287 4.05272C8.83464 4.33446 8.69932 4.57753 8.52745 4.7813C8.35966 4.98065 8.16278 5.14998 7.93774 5.2887C7.71267 5.42737 7.47478 5.54243 7.22517 5.63347L9.98943 9.16578H7.32346L4.76805 5.87416H2.28021V9.16578H0V0.227681H5.71404ZM2.28021 4.00718H5.40076C5.66667 4.00716 5.88822 3.98981 6.06418 3.95514C6.24409 3.92044 6.38782 3.86616 6.49418 3.79251C6.60043 3.71449 6.67442 3.61455 6.71532 3.49327C6.76031 3.37189 6.78289 3.22429 6.78289 3.05092C6.78289 2.87756 6.76031 2.72996 6.71532 2.60857C6.67442 2.48731 6.60042 2.38953 6.49418 2.31584C6.38782 2.23786 6.24409 2.18141 6.06418 2.1467C5.88822 2.11204 5.66667 2.09469 5.40076 2.09466H2.28021V4.00718Z" fill="#091F5B"/>
<path d="M20.1681 2.13369H13.9638V3.61037H19.8486V5.51638H13.9638V7.25976H20.2541V9.16578H11.6234V0.227681H20.1681V2.13369Z" fill="#091F5B"/>
<path fill-rule="evenodd" clip-rule="evenodd" d="M32.5765 9.16578H30.0334L29.241 7.47443H24.5356L23.7432 9.16578H21.2001L25.6167 0.227681H28.1599L32.5765 9.16578ZM25.3526 5.73105H28.4363L26.9006 2.43944L25.3526 5.73105Z" fill="#091F5B"/>
<path fill-rule="evenodd" clip-rule="evenodd" d="M39.3029 0.227681C39.7655 0.22771 40.2102 0.260235 40.6359 0.325258C41.0616 0.385981 41.4592 0.485785 41.8276 0.624496C42.2001 0.763249 42.5383 0.947698 42.8412 1.17743C43.144 1.40289 43.4023 1.68282 43.6152 2.0166C43.8321 2.34613 44.0002 2.73231 44.1189 3.17452C44.2376 3.61683 44.297 4.12218 44.297 4.69022C44.297 5.26261 44.2376 5.77229 44.1189 6.21894C44.0002 6.66115 43.8321 7.04733 43.6152 7.37686C43.4023 7.70631 43.144 7.98623 42.8412 8.21602C42.5424 8.44576 42.2082 8.63021 41.8399 8.76896C41.4715 8.90767 41.0739 9.00965 40.6482 9.07471C40.2225 9.13539 39.7777 9.16575 39.3152 9.16578H33.9587V0.227681H39.3029ZM36.2377 7.22073H39.0695C39.6057 7.2207 40.0607 7.17082 40.4332 7.07111C40.8056 6.96703 41.107 6.8108 41.3362 6.60274C41.5694 6.3903 41.7376 6.12554 41.8399 5.80911C41.9463 5.49257 41.9996 5.11947 41.9996 4.69022C41.9996 4.26098 41.9463 3.88788 41.8399 3.57134C41.7376 3.25492 41.5694 2.9945 41.3362 2.79072C41.107 2.58266 40.8056 2.4286 40.4332 2.32885C40.0607 2.22481 39.6057 2.17277 39.0695 2.17273H36.2377V7.22073Z" fill="#091F5B"/>
<path d="M57.6146 6.99305L61.0239 0.227681H64.1076V9.16578H61.8409V2.88829L58.708 9.16578H56.5212L53.3884 2.88829V9.16578H51.1094V0.227681H54.2054L57.6146 6.99305Z" fill="#091F5B"/>
<path fill-rule="evenodd" clip-rule="evenodd" d="M85.46 0.227681C86.074 0.227726 86.5945 0.294946 87.0202 0.429341C87.45 0.563771 87.7985 0.754707 88.0645 1.0018C88.3346 1.24893 88.5294 1.54838 88.6481 1.89951C88.7709 2.2464 88.8324 2.63468 88.8324 3.06393C88.8324 3.44114 88.7811 3.77088 88.6788 4.05272C88.5806 4.33446 88.4453 4.57753 88.2734 4.7813C88.1056 4.98065 87.9087 5.14998 87.6837 5.2887C87.4586 5.42737 87.2207 5.54243 86.9711 5.63347L89.7354 9.16578H87.0694L84.514 5.87416H82.0261V9.16578H79.7472V0.227681H85.46ZM82.0261 4.00718H85.1467C85.4126 4.00716 85.6342 3.98981 85.8101 3.95514C85.99 3.92044 86.1338 3.86616 86.2401 3.79251C86.3464 3.71449 86.4204 3.61455 86.4613 3.49327C86.5062 3.37189 86.5288 3.22429 86.5288 3.05092C86.5288 2.87756 86.5062 2.72996 86.4613 2.60857C86.4204 2.48731 86.3464 2.38953 86.2401 2.31584C86.1338 2.23786 85.99 2.18141 85.8101 2.1467C85.6342 2.11204 85.4126 2.09469 85.1467 2.09466H82.0261V4.00718Z" fill="#091F5B"/>
<path d="M99.914 2.13369H93.7098V3.61037H99.5946V5.51638H93.7098V7.25976H100V9.16578H91.3694V0.227681H99.914V2.13369Z" fill="#091F5B"/>
</svg>
