<svg width="436" height="148" viewBox="0 0 436 148" fill="none" xmlns="http://www.w3.org/2000/svg">
<path d="M15.0469 94.2802C3.53341 84.8712 -11.2559 56.721 16.3766 20.472C24.2999 11.063 45.5764 -6.14753 69.6434 4.40035C73.8906 6.73938 83.3527 12.1389 85.2116 21.6943C84.7744 18.8753 88.3903 11.5454 97.313 6.62877C101.564 4.45373 105.131 4.39016 108.827 4.95745C112.072 5.45572 116.997 7.18588 120.34 11.2713C122.94 15.1711 126.097 23.0718 120.34 32.6271L129.625 33.7413L147.081 18.6995C148.938 17.3995 153.841 17.0281 154.138 21.485C159.214 15.1711 173.897 3.24904 189.05 5.32891C204.203 7.40877 205.206 13.4998 207.806 18.6995C212.263 14.614 220.025 12.3856 234.733 15.3568C239.004 16.5948 247.732 20.7422 250.517 28.9131C253.117 26.3132 263.929 21.4337 278.744 26.6846C290.815 30.9628 292.672 35.2269 297.871 41.3551C302.514 35.2269 315.179 24.9762 328.698 24.0848C342.217 23.1935 350.611 24.8276 356.553 28.9131C363.096 34.0023 367.683 43.183 369.964 47.7495L370.109 48.0403C371.998 51.8182 379.023 50.8259 382.551 50.8259C395.736 50.8259 404.843 39.713 404.464 38.1981C404.093 36.7124 403.083 34.2835 403.35 31.8842C403.721 28.5416 408.735 26.8703 411.335 29.4701C417.649 35.784 429.72 51.383 435.291 58.4396C436.034 59.9872 431.837 63.8251 426.934 62.3395C420.806 60.4824 414.837 57.1404 402.823 74.697C394.251 87.2235 390.887 110.993 395.179 115.822C397.16 118.05 404.903 124.057 411.736 123.165C414.151 123.041 419.655 123.881 420.992 130.121C422.329 136.36 417.463 139.592 415.235 139.963L374.195 146.834C371.966 147.082 362.867 147.8 363.61 142.006C364.353 136.212 365.281 130.74 364.167 128.449C363.424 126.654 361.53 121.43 353.211 123.064C342.811 125.107 335.755 125.85 307.528 139.034C303.38 140.768 293.192 140.929 293.786 131.421L254.788 119.164C250.889 121.207 240.118 120.093 234.175 110.993C234.175 110.993 233.247 123.807 232.133 126.778C231.019 129.749 226.116 130.715 222.848 128.635C219.579 126.555 201.554 105.36 190.535 95.2087C189.793 94.7135 187.787 93.426 187.193 95.2087C186.45 97.4372 189.236 105.979 189.607 108.579C189.925 110.808 187.007 120.279 180.322 118.793C174.974 117.604 163.393 104.393 155.066 98.5514C150.208 95.8503 147.081 94.4659 148.381 97.4372C151.004 103.432 153.395 102.08 154.509 102.451C156.243 103.029 156.359 105.757 153.982 108.579C151.011 112.108 142.996 119.907 131.482 123.435C122.352 126.233 106.784 127.335 96.3845 116.007C94.5275 125.107 85.7995 137.279 69.4577 144.521C63.5771 147.121 48.5031 147.678 39.5894 144.521C38.599 143.964 36.4324 142.627 35.6896 141.735C34.9468 140.844 20.6478 117.842 13.5911 106.452C12.2614 104.865 10.4044 100.594 12.2614 98.1799C13.6763 96.3405 16.9039 96.5705 18.0181 96.6943L15.0469 94.2802Z" fill="black" stroke="black"/>
<path d="M20.4621 28.6429C4.26884 49.293 10.3723 72.6543 15.4481 81.7537C24.0647 97.7984 34.7612 98.0955 39.218 98.0955C44.0165 98.0955 52.0017 96.6944 60.3881 90.4817C64.7211 88.0676 73.9072 85.4677 75.987 94.3814C78.0669 103.295 71.7778 108.619 68.3732 110.166C62.4308 112.867 50.063 113.769 44.4177 113.323C38.6609 113.323 32.1613 108.99 28.8187 105.895C28.3235 105.4 27.0731 104.521 26.0332 104.966C25.1046 105.524 25.2284 106.885 25.476 107.752L46.089 139.136C50.2982 140.126 61.8737 139.321 74.5014 128.179C90.2861 114.252 89.729 101.438 89.9147 100.324C90.0633 99.4325 90.7194 99.7049 91.0289 99.9525C101.8 112.58 109.413 115.366 122.97 116.109C136.526 116.851 144.697 106.452 146.554 105.152C148.039 104.112 147.173 102.614 146.554 101.995C143.459 98.8383 136.934 92.2273 135.597 91.0388C134.26 89.8503 135.659 89.8008 136.526 89.9246L153.239 92.153C154.044 91.9054 154.465 90.5931 149.711 87.3247C144.957 84.0564 145.006 73.0876 145.625 68.0117C146.43 61.8835 150.602 47.0645 160.853 36.8138C171.104 26.563 179.237 29.2 182.023 31.7998C186.666 38.6708 186.108 49.0701 182.58 58.1695C175.523 79.3395 160.853 86.2105 155.653 85.6534C152.99 85.3681 153.92 87.4485 154.725 88.2532C161.534 93.7624 175.523 105.004 177.009 105.895C178.866 107.009 180.166 105.152 178.68 103.481C177.492 102.144 177.69 96.486 177.938 93.8243C178.383 84.762 187.78 68.1355 192.422 60.955C197.127 54.2698 208.356 40.5649 215.635 39.2279C222.915 37.8908 226.468 41.023 227.334 42.7562C235.505 54.4555 224.363 72.2829 213.221 79.1538C202.079 86.0248 195.765 83.0536 193.722 82.6822C192.088 82.3851 192.175 83.5488 192.422 84.1678C202.883 93.7624 223.992 113.1 224.734 113.694C225.477 114.289 226.034 113.694 226.22 113.323C227.396 106.143 229.786 91.5587 229.934 90.6674C230.083 89.776 230.491 90.1722 230.677 90.4817C235.134 101.995 241.909 104.722 243.832 105.608C246.031 106.621 258.874 111.179 275.587 97.3526C284.999 89.5667 289.969 74.7145 284.345 61.5121C282.087 56.2113 278.558 49.526 266.332 51.6699C256.658 53.3663 251.723 61.9972 249.804 67.4546C249.21 69.3859 250.671 68.7545 251.476 68.1974C259.795 62.9978 266.735 67.8486 267.416 71.2532C269.273 79.424 265.931 93.9096 256.831 97.3526C247.732 100.796 240.891 96.6098 236.434 91.7816C231.977 86.9533 234.639 75.1922 236.434 69.8687C239.219 63.8025 248.43 50.7414 262.989 47.0274C281.188 42.3848 287.736 55.0347 289.73 60.7693C292.701 69.3116 292.804 85.3619 282.673 97.3526C274.287 107.279 260.855 109.322 256.831 110.251C255.346 111.365 258.842 112.952 259.646 113.137C270.974 115.923 298.205 123.794 299.201 124.094C300.1 124.364 300.1 123.435 299.728 123.25L298.428 121.95C297.686 121.021 294.339 117.901 292.857 112.108C290.815 104.122 291.372 85.7379 307.899 64.5679C310.467 61.2785 322.384 50.9271 332.041 51.6699C341.697 52.4127 339.654 63.7406 339.654 68.1974C339.654 92.7101 304.215 128.551 303.286 129.293C302.544 129.888 302.606 130.408 302.729 130.593L302.915 130.965C303.064 131.559 304.958 130.965 305.886 130.593L323.157 122.051C327.242 120.38 338.347 116.74 350.083 115.551C364.754 114.066 368.096 116.109 371.068 118.523C374.039 120.937 375.153 132.079 375.153 134.122C375.153 135.756 376.639 135.917 377.382 135.793C387.224 134.555 407.094 132.079 407.837 132.079C408.58 132.079 408.518 131.46 408.394 131.15C407.948 130.556 406.537 130.408 406.165 130.408C405.794 130.408 404.754 130.296 401.337 129.108C397.066 127.622 395.023 125.022 391.681 120.38C388.338 115.737 387.561 106.785 388.338 99.3954C389.422 89.0806 392.362 80.2062 394.466 74.3256C397.883 64.0748 402.784 58.8121 405.051 57.4267C415.079 51.2985 427.893 57.9838 428.45 58.3552C428.895 58.6523 429.131 58.7266 429.193 58.7266L429.378 58.5409C429.75 58.1695 428.697 57.1791 428.078 56.4982C423.188 50.7414 413.309 38.4149 411.551 36.0709C409.664 33.5556 409.077 33.8258 408.55 34.1127C408.215 34.2949 406.879 35.2269 407.993 36.8983L409.85 39.6838C410.221 40.2409 410.385 40.7443 410.221 41.1694C410 41.7426 409.392 42.8969 408.921 43.5835C398.15 59.2837 376.046 56.4387 369.953 55.9411C364.167 55.4685 363.454 55.5697 363.64 53.7127C360 36.0453 348.783 30.1517 339.684 29.0143C333.742 28.2715 325.764 28.9124 321.114 30.8713C305.485 37.4554 301.771 47.0274 296.415 53.5269C295.734 54.3537 295.301 54.0222 295.116 53.7127C294.967 53.7127 294.806 52.3508 294.744 51.6699C293.704 45.7275 287.378 39.166 284.345 36.6281C282.164 34.9925 276.582 31.6512 266.332 30.3142C253.89 29.3857 245.132 36.8983 244.79 39.4136C244.464 41.8128 243.862 46.4703 243.676 47.0274C243.527 47.4731 242.871 47.5845 242.562 47.5845C241.633 47.5845 241.757 46.8417 241.819 46.2846C242.859 39.8964 242.5 35.2043 242.19 33.6568C241.571 29.0762 237.89 21.485 225.292 20.472C219.319 20.472 211.706 20.472 204.649 30.213C200.361 36.1318 199.737 37.7247 199.264 38.1982C198.892 38.5696 198.335 38.1982 198.335 37.6411C198.335 37.084 202.192 28.1869 202.235 27.5286C203.163 15.458 194.651 11.744 187.78 10.6298C180.909 9.51554 174.409 12.1154 168.095 15.8294C163.044 18.8006 157.944 24.8669 156.025 27.5286C153.796 30.3142 150.515 37.4328 149.339 40.8992L148.039 44.9846C147.668 45.5418 147.42 45.418 147.111 45.3561C146.554 45.1703 146.492 44.5513 146.554 44.0561L151.011 26.2287C151.196 25.4859 151.494 24.0746 150.454 23.6289C149.414 23.1832 148.039 24.3098 147.482 24.9288C142.778 29.2 133.183 37.928 132.44 38.6708C131.698 39.4136 130.645 39.4755 130.212 39.4136C124.27 38.7327 112.125 37.3709 111.085 37.3709C110.045 37.3709 109.413 36.7519 109.228 36.4424C109.042 35.5138 109.29 35.0805 109.971 34.771L111.456 34.2139L112.942 33.4711C115.542 31.4284 119.367 27.3801 119.07 21.5862C118.699 14.3438 114.056 9.88695 106.256 9.70124C100.017 9.55268 95.6096 13.8486 94.1858 16.0151C87.1292 25.1145 94.7429 33.4711 96.4143 34.0282C97.7513 34.4739 97.7142 35.4519 97.5285 35.8852C97.5285 36.0338 96.6619 35.9471 96.2286 35.8852C89.1214 33.8863 87.2109 34.8667 86.7578 35.3281C84.9007 39.0422 81.8998 46.7405 81.8998 46.7405C78.7428 55.6542 78.3074 58.4397 77.4429 63.4537C76.5784 68.4676 75.987 69.7675 79.4856 71.6246C82.9842 73.4816 88.2434 79.8967 88.9862 81.1966C89.729 82.4965 89.1719 83.0536 88.4291 83.2393C87.8348 83.3878 87.0673 82.6822 86.7578 82.3108C82.3009 77.1111 75.6275 75.2541 69.1161 75.2541C59.2738 75.2541 55.1586 79.8967 51.2589 83.2393C48.8448 84.9106 45.3462 86.8791 38.6609 88.0675C31.9756 89.256 27.9521 82.1251 26.776 78.411C24.8447 63.852 32.2957 51.1128 36.9896 44.9846C43.6749 36.2566 49.1221 35.0805 52.7743 35.3281C56.055 35.5757 62.5793 37.7051 62.4308 44.2418C62.2822 50.7786 56.1509 51.931 50.7018 53.7972C49.6173 54.1686 46.4306 55.8399 46.6163 54.3543L49.6173 49.1546C50.7315 47.2976 52.6793 37.6632 52.1874 38.7553C49.9292 43.7692 42.8659 49.6867 41.6024 51.5687C36.9896 58.4397 34.5457 61.2252 35.6599 65.125L33.0601 72.9245L31.3888 74.5958C31.0174 75.71 33.2458 79.9812 36.5884 79.9812C35.6599 75.1529 39.0026 71.4389 40.1168 71.8103C39.7801 73.9422 39.0026 73.4816 39.7454 75.71C39.6135 76.9796 38.3951 77.1368 37.7026 78.411C40.6739 79.5252 44.0165 76.8472 44.0165 76.0814C44.0165 67.9105 47.3294 72.5531 49.959 66.982C51.5258 63.6625 60.7297 63.8251 66.6722 59.3682C76.2322 52.1982 77.3768 48.4781 80.2582 35.8852C84.2693 18.355 70.0446 10.0108 62.4308 8.02996C55.1884 6.29674 36.6553 7.99282 20.4621 28.6429Z" fill="#6F96D1"/>
<path d="M98.6426 84.7249C95.3743 70.3144 104.709 55.8172 109.785 50.37C114.984 45.356 122.97 43.499 125.198 43.499C126.981 43.499 126.56 44.737 126.127 45.356C123.217 47.7701 117.101 53.2669 115.913 55.941C114.724 58.6151 117.027 58.5409 118.327 58.1695C122.041 54.9011 129.036 54.9506 132.069 55.3839C134.793 55.6934 139.794 58.6151 138.011 67.826C135.783 79.3395 122.598 85.6534 121.484 86.5819C120.593 87.3247 121.113 87.758 121.484 87.8818L128.541 88.6246C130.026 88.8103 128.726 89.4912 128.355 89.7388C127.241 90.4816 123.155 93.3291 120.741 94.7528C114.737 97.4145 101.911 99.1353 98.6426 84.7249Z" fill="black" stroke="black"/>
<path d="M341.192 98.6563C349.363 93.7538 358.834 74.3294 362.548 65.23C362.855 64.4872 363.048 65.1681 363.105 65.6013V85.6572C363.105 86.4 363.6 86.2143 363.848 86.0286C371.09 78.7243 385.984 63.8186 387.618 62.6301C389.252 61.4416 388.918 62.7539 388.546 63.5586L365.519 97.7278C365.272 97.9754 364.851 98.582 365.148 99.0277C365.445 99.4734 369.878 106.201 370.719 109.984C371.09 111.655 370.533 111.47 369.605 110.356C363.848 100.885 348.806 100.018 341.749 101.07C341.192 101.194 340.19 101.108 339.892 100.513C339.595 99.9191 340.635 99.0897 341.192 98.6563Z" fill="black" stroke="black"/>
<path d="M37.6657 65.8073L39.5197 61.5645L40.0659 63.9266L37.6657 65.8073Z" fill="black" stroke="black"/>
</svg>
