<svg width="80" height="101" viewBox="0 0 80 101" fill="none" xmlns="http://www.w3.org/2000/svg">
<path d="M31.1463 91.2257C31.5906 91.2257 32.0058 91.245 32.3919 91.2835C32.7824 91.322 33.1527 91.3798 33.5028 91.4569C33.8529 91.5296 34.1918 91.6173 34.5194 91.7201C34.8471 91.8228 35.1726 91.9383 35.4957 92.0667V94.2109C35.2399 94.0782 34.9705 93.9477 34.6878 93.8193C34.405 93.6866 34.093 93.5689 33.7519 93.4662C33.4108 93.3592 33.0359 93.2736 32.6275 93.2094C32.219 93.1409 31.759 93.1067 31.2473 93.1067C30.4618 93.1067 29.8087 93.1837 29.288 93.3378C28.7718 93.4919 28.3589 93.6973 28.0492 93.9541C27.7395 94.2109 27.5217 94.5062 27.3961 94.84C27.2704 95.1695 27.2075 95.512 27.2075 95.8671C27.2076 96.1025 27.2345 96.3358 27.2883 96.5669C27.3422 96.7936 27.432 97.0099 27.5576 97.2153C27.6833 97.4164 27.8472 97.6026 28.0492 97.7738C28.2511 97.9449 28.5025 98.0926 28.8032 98.2167C29.1039 98.3408 29.4541 98.4393 29.8536 98.512C30.2575 98.5805 30.7221 98.6148 31.2473 98.6148C31.7589 98.6148 32.2191 98.5848 32.6275 98.5249C33.0359 98.4607 33.4108 98.3772 33.7519 98.2745C34.093 98.1718 34.405 98.0562 34.6878 97.9278C34.9705 97.7952 35.2399 97.6603 35.4957 97.5234V99.6676C35.1726 99.796 34.8471 99.9115 34.5194 100.014C34.1918 100.117 33.8529 100.205 33.5028 100.277C33.1527 100.354 32.7823 100.412 32.3919 100.451C32.0058 100.489 31.5906 100.509 31.1463 100.509C30.2037 100.509 29.3351 100.412 28.5406 100.22C27.7507 100.027 27.0684 99.7382 26.4939 99.353C25.9239 98.9636 25.4794 98.4799 25.1607 97.9022C24.8421 97.3202 24.6827 96.6417 24.6827 95.8671C24.6827 95.0926 24.8421 94.4163 25.1607 93.8385C25.4794 93.2565 25.9239 92.7729 26.4939 92.3877C27.0684 91.9983 27.7507 91.7072 28.5406 91.5146C29.3351 91.322 30.2037 91.2257 31.1463 91.2257Z" fill="#091F5B"/>
<path d="M58.2798 96.4449C58.2798 96.7401 58.3179 97.0206 58.3942 97.2859C58.475 97.5469 58.6232 97.776 58.8386 97.9728C59.0585 98.1696 59.3638 98.3259 59.7542 98.4414C60.1492 98.557 60.661 98.6148 61.2893 98.6148C61.9132 98.6148 62.4205 98.557 62.811 98.4414C63.2014 98.3259 63.5045 98.1696 63.7199 97.9728C63.9398 97.776 64.088 97.5469 64.1643 97.2859C64.2406 97.0206 64.2787 96.7401 64.2787 96.4449V91.4504H66.7766V97.2987C66.7766 97.7395 66.6621 98.1547 66.4333 98.5441C66.2043 98.9335 65.8609 99.2739 65.4031 99.5649C64.9453 99.8559 64.373 100.087 63.6862 100.258C63.004 100.425 62.205 100.509 61.2893 100.509C60.3737 100.509 59.5702 100.425 58.879 100.258C58.1923 100.087 57.6199 99.8559 57.1621 99.5649C56.7043 99.2739 56.3609 98.9335 56.132 98.5441C55.9031 98.1547 55.7886 97.7395 55.7886 97.2987V91.4504H58.2798V96.4449Z" fill="#091F5B"/>
<path fill-rule="evenodd" clip-rule="evenodd" d="M6.59148 91.4504C6.85631 91.4504 7.12114 91.4611 7.38596 91.4825C7.65527 91.5039 7.91113 91.5446 8.15351 91.6045C8.39587 91.6601 8.62034 91.7393 8.8268 91.842C9.03772 91.9447 9.21957 92.0796 9.37216 92.2465C9.52921 92.4134 9.65047 92.6146 9.73573 92.8499C9.82546 93.0853 9.87039 93.3636 9.87039 93.6845C9.87036 94.2579 9.72223 94.7138 9.42602 95.0519C9.12977 95.3856 8.66289 95.6082 8.02559 95.7195C8.47444 95.7495 8.85822 95.8158 9.17691 95.9185C9.50006 96.0169 9.76268 96.1539 9.96465 96.3294C10.1666 96.5005 10.3148 96.7124 10.409 96.9649C10.5032 97.2131 10.5504 97.5042 10.5504 97.838C10.5504 98.1803 10.5033 98.4779 10.409 98.7303C10.3148 98.9827 10.1823 99.2011 10.0118 99.3851C9.84573 99.5648 9.64367 99.7125 9.40582 99.8281C9.17244 99.9393 8.91205 100.029 8.62481 100.098C8.34204 100.162 8.03903 100.207 7.71587 100.233C7.3927 100.258 7.05829 100.271 6.71267 100.271H0V91.4504H6.59148ZM2.4979 98.4992H6.10672C6.44335 98.4992 6.73288 98.4885 6.97526 98.4671C7.2176 98.4457 7.41515 98.4007 7.56775 98.3323C7.7203 98.2638 7.83257 98.1696 7.90439 98.0498C7.97619 97.9258 8.0121 97.763 8.01212 97.5619C8.01212 97.3609 7.97615 97.2003 7.90439 97.0805C7.83259 96.9564 7.72032 96.8622 7.56775 96.798C7.41514 96.7295 7.21763 96.6846 6.97526 96.6632C6.73287 96.6418 6.44336 96.6311 6.10672 96.6311H2.4979V98.4992ZM2.4979 94.8785H6.18078C6.43211 94.8785 6.63862 94.8571 6.8002 94.8143C6.96173 94.7715 7.08973 94.7137 7.18398 94.641C7.27818 94.5683 7.34331 94.4826 7.37923 94.3842C7.41512 94.2816 7.43307 94.1744 7.43309 94.0632C7.43309 93.952 7.41509 93.8471 7.37923 93.7487C7.34333 93.646 7.27818 93.5561 7.18398 93.479C7.08973 93.402 6.96176 93.34 6.8002 93.2929C6.63861 93.2458 6.43214 93.2223 6.18078 93.2223H2.4979V94.8785Z" fill="#091F5B"/>
<path fill-rule="evenodd" clip-rule="evenodd" d="M23.9219 100.271H21.1345L20.2659 98.6019H15.1086L14.24 100.271H11.4526L16.2936 91.4504H19.081L23.9219 100.271ZM16.004 96.8815H19.3839L17.7007 93.6331L16.004 96.8815Z" fill="#091F5B"/>
<path d="M40.3366 94.8143L45.4536 91.4504H48.7999L42.572 95.681L49.2173 100.271H45.5748L40.3366 96.6054V100.271H37.8253V91.4504H40.3366V94.8143Z" fill="#091F5B"/>
<path fill-rule="evenodd" clip-rule="evenodd" d="M76.2498 91.4504C76.9321 91.4504 77.5111 91.5253 77.9869 91.6751C78.4626 91.8206 78.8487 92.0282 79.1449 92.2978C79.4456 92.5632 79.6634 92.8799 79.798 93.2479C79.9326 93.6159 80 94.0205 80 94.4613C80 94.902 79.9326 95.3087 79.798 95.681C79.6634 96.049 79.4456 96.3679 79.1449 96.6375C78.8487 96.9028 78.4626 97.1104 77.9869 97.2602C77.5111 97.41 76.932 97.4849 76.2498 97.4849H72.1023V100.271H69.6044V91.4504H76.2498ZM72.1023 95.6039H75.7112C76.0388 95.6039 76.3149 95.5868 76.5393 95.5526C76.7637 95.5141 76.9455 95.452 77.0847 95.3664C77.2238 95.2766 77.3225 95.1609 77.3809 95.0198C77.4437 94.8786 77.4752 94.7051 77.4752 94.4998C77.4752 94.2944 77.4437 94.1188 77.3809 93.9734C77.3226 93.8236 77.2238 93.7016 77.0847 93.6074C76.9455 93.5133 76.7637 93.4448 76.5393 93.402C76.3149 93.3549 76.0388 93.3314 75.7112 93.3314H72.1023V95.6039Z" fill="#091F5B"/>
<path d="M43.2022 77.195C43.7059 76.6506 44.5782 76.5994 45.1493 77.0794C45.7199 77.5599 45.7741 78.3904 45.2705 78.9347C44.4451 79.8268 43.5373 80.7322 42.5437 81.6515C41.9971 82.1566 41.124 82.1442 40.5938 81.6233C40.0641 81.1022 40.0774 80.2697 40.6235 79.7641C41.5702 78.8882 42.4278 78.0319 43.2022 77.195Z" fill="#091F5B"/>
<path d="M50.9571 63.8216C51.7156 63.8818 52.28 64.5171 52.2175 65.2403C52.0209 67.504 51.3621 69.8154 50.133 72.2018L49.8798 72.6794C49.5287 73.3235 48.6959 73.5752 48.0202 73.2405C47.3874 72.9266 47.1166 72.2096 47.3738 71.5906L47.4331 71.4674C48.6685 69.1996 49.2916 67.0673 49.4691 65.0234C49.5322 64.3001 50.1985 63.762 50.9571 63.8216Z" fill="#091F5B"/>
<path d="M46.1592 50.0913C46.8288 49.746 47.6658 49.9845 48.0283 50.6228C49.1546 52.607 50.1639 54.6108 50.9153 56.656L51.221 57.5355L51.256 57.6652C51.3965 58.3181 50.9976 58.9795 50.3161 59.1828C49.635 59.3854 48.9118 59.0593 48.6369 58.4471L48.5885 58.32L48.3111 57.5226C47.7248 55.9276 46.9538 54.327 46.0596 52.6938L45.6031 51.8734L45.5425 51.7527C45.2735 51.1377 45.5317 50.4155 46.1592 50.0913Z" fill="#091F5B"/>
<path d="M38.5578 37.3894C39.1929 37.0782 39.9642 37.2823 40.3447 37.8413L40.4147 37.9582L40.8564 38.7632C41.6002 40.1001 42.3846 41.4097 43.182 42.7048L44.1434 44.2533L44.2094 44.3727C44.5047 44.9765 44.2783 45.7072 43.6654 46.0559C43.0114 46.4273 42.1647 46.2235 41.7748 45.6001C40.4857 43.5383 39.1679 41.3965 37.9626 39.1599C37.6149 38.5145 37.8813 37.7215 38.5578 37.3894Z" fill="#091F5B"/>
<path d="M34.3794 23.419C35.1369 23.3449 35.8137 23.8703 35.8916 24.5925C36.1164 26.6825 36.5722 28.6808 37.1951 30.6077L37.4725 31.4294L37.5102 31.5591C37.6641 32.209 37.2794 32.877 36.6026 33.0933C35.9257 33.309 35.1962 32.9969 34.9086 32.3898L34.8574 32.2639L34.5598 31.3819C33.8902 29.3103 33.394 27.1423 33.1486 24.8608C33.0711 24.1388 33.6222 23.4933 34.3794 23.419Z" fill="#091F5B"/>
<path d="M41.5486 15.6897L37.012 13.1796C36.6454 14.419 36.3628 15.6226 36.1596 16.7939L36.0303 17.6053C35.9258 18.3245 35.2293 18.827 34.475 18.7275C33.7212 18.6277 33.1941 17.9647 33.2981 17.2458C33.5522 15.4948 33.9635 13.6873 34.5531 11.8187L27.7771 8.0696L41.5836 0.508545L41.5486 15.6897Z" fill="#091F5B"/>
</svg>
