<svg width="1276" height="379" viewBox="0 0 1276 379" fill="none" xmlns="http://www.w3.org/2000/svg">
<path d="M193.844 0.00441342L41.8441 78.5044C38.3441 80.3377 31.9442 88.1044 34.3442 104.504C36.7442 120.904 46.3442 125.671 50.8442 126.004C81.2442 117.604 98.1776 131.504 102.844 139.504C79.5108 159.171 27.7441 207.204 7.34408 242.004C-13.0559 276.804 13.8441 283.504 29.8441 282.504L51.8441 276.004C54.2441 318.404 106.011 355.838 130.844 367.004C147.844 374.649 180.844 379.004 204.844 378.004C235.844 378.004 293.011 331.171 301.344 309.004C309.511 317.171 324.144 329.604 363.344 328.004C402.544 326.404 424.678 301.838 429.344 288.004C456.144 337.604 503.511 330.004 524.344 319.004L628.344 322.504C627.511 327.004 626.344 342.104 628.344 354.504C630.344 366.904 644.844 358.338 651.844 352.504C710.844 304.004 773.344 312.504 787.844 311.504C799.444 310.704 802.011 317.004 802.344 321.004C802.344 326.004 805.275 325.702 807.344 324.504C828.287 312.386 881.627 298.004 894.344 313.004C909.944 331.404 936.844 308.505 942.844 300.838C928.757 318.838 932.011 337.505 932.844 344.838C977.511 345.171 1091.54 341.204 1110.34 338.004C1129.14 334.804 1123.51 322.338 1118.34 316.504C1028.84 250.504 1271.84 141.504 1275.34 116.004C1278.14 95.6044 1261.84 91.8377 1253.34 92.5044L1117.84 106.004C1123.34 98.0044 1134.14 79.5044 1133.34 69.5044C1132.54 59.5044 1121.01 58.6711 1115.34 59.5044L1024.34 70.5044V64.0044C1023.94 54.0044 1014.51 54.8377 1009.84 56.5044L920.344 84.5044C905.144 29.3044 856.677 42.8377 834.344 56.5044C835.944 48.5044 827.011 48.5044 822.344 49.5044L718.844 84.5044C649.644 73.7044 615.344 113.671 606.844 135.004C604.511 128.171 598.144 102.004 593.344 96.0044C588.544 90.0044 582.011 90.8377 579.344 92.0044L520.844 115.504C527.844 110.838 545.944 100.804 548.344 92.0044C550.744 83.2044 529.511 81.3377 524.344 80.5044C486.677 77.1711 417.744 74.3044 405.344 73.5044C392.944 72.7044 389.177 82.8377 388.844 88.0044C341.644 63.2044 302.511 82.0044 288.844 94.5044C256.844 18.1044 212.177 -0.32892 193.844 0.00441342Z" fill="black"/>
<path d="M69.8441 99.5044L197.844 38.0044C220.011 51.0044 264.444 87.9044 264.844 131.504C258.844 137.504 246.644 151.004 245.844 157.004C244.844 164.504 247.844 166.004 251.844 162.504C255.844 159.004 293.344 121.004 320.844 116.504C335.344 113.671 368.344 110.104 384.344 118.504C404.344 129.004 413.844 132.504 427.844 164.004C427.011 151.171 427.744 123.304 437.344 114.504L419.344 113.004C416.677 112.338 411.444 110.204 411.844 107.004C412.344 103.004 414.844 101.004 419.344 100.004C422.944 99.2044 481.511 104.338 510.344 107.004C498.344 110.671 478.344 125.504 478.344 149.504C478.344 183.004 474.844 220.004 502.344 226.504C529.844 233.004 559.344 176.504 539.844 147.504C538.677 144.171 532.544 137.904 517.344 139.504C502.144 141.104 547.011 126.171 571.344 118.504C574.677 117.504 581.744 117.004 583.344 123.004C584.944 129.004 595.677 175.504 601.344 191.504C613.844 168.504 630.844 109.897 674.844 111.504C698.718 112.376 710.933 115.968 726.844 128.504C743.344 141.504 740.982 195.754 732.344 211.504C723.844 227.004 713.344 241.004 683.844 255.504C681.989 290.438 706.652 285.041 727.344 255.504C740.119 237.27 754.98 205.314 760.344 180.504C764.344 162.004 759.484 138.518 755.344 125.504C749.659 107.633 723.389 106.153 714.681 108.126L713.344 108.504C713.725 108.368 714.173 108.242 714.681 108.126L808.844 81.5044L792.344 138.004C804.511 116.171 837.444 73.4044 871.844 77.0044C906.244 80.6044 917.969 124.232 920.344 136.504C923.344 152.004 921.844 176.004 912.844 194.504C910.412 199.504 913.244 202.404 918.844 196.004C925.844 188.004 942.844 134.504 933.844 106.504L1022.34 87.0044L1018.34 123.504C1016.34 134.004 1020.62 140.504 1023.84 129.504C1029.84 109.004 1019.17 116.004 1027.34 113.504C1035.52 111.004 1068.84 100.838 1091.84 94.0044C1093.68 93.6711 1096.94 94.0044 1095.34 98.0044C1093.34 103.004 1067.34 121.504 1068.84 145.504C1070.28 168.405 1078.84 195.504 1106.34 174.504C1110.68 169.671 1118.74 157.504 1116.34 147.504H1102.34C1099.51 146.504 1095.54 143.604 1102.34 140.004C1109.14 136.404 1193.51 121.838 1234.84 115.004C1239.34 114.171 1246.24 114.004 1237.84 120.004C1227.34 127.504 1057.34 218.004 1065.34 287.004C1066.18 295.171 1070.54 311.704 1081.34 312.504C1083.84 312.838 1087.34 313.904 1081.34 315.504C1075.34 317.104 1010.51 320.504 978.844 322.004C977.011 312.838 977.844 289.904 995.844 271.504L909.344 249.004C907.011 247.671 902.244 246.204 901.844 251.004L901.827 251.214C901.31 257.401 899.878 274.573 902.844 280.504C889.011 276.838 856.844 272.004 838.844 282.004C835.011 284.338 827.144 288.604 826.344 287.004C825.344 285.004 826.844 283.504 833.344 278.004C839.844 272.504 878.344 217.314 878.344 184.504C878.344 158.504 866.844 147.856 852.344 145.504C840.011 143.504 809.744 147.704 797.344 174.504C784.944 201.304 784.844 228.004 786.844 251.004C787.344 258.171 791.344 274.804 805.344 278.004C809.344 278.919 807.913 281.757 804.344 282.004C732.344 287.004 685.344 293.004 656.344 327.004C655.178 327.504 652.944 327.704 653.344 324.504C653.744 321.304 660.178 274.671 660.344 259.504L647.344 266.004C644.178 265.671 638.944 263.904 643.344 257.504C648.844 249.504 685.344 238.004 677.344 191.504C671.677 181.338 655.244 167.104 634.844 191.504C614.444 215.904 611.344 241.338 612.344 251.004C615.177 265.171 623.144 293.404 632.344 293.004C634.344 294.171 637.144 296.804 632.344 298.004C627.544 299.204 576.677 297.838 551.844 297.004C550.011 296.504 547.444 294.804 551.844 292.004C557.344 288.504 594.344 281.004 571.344 224.004C561.844 244.171 535.844 278.004 499.344 278.004C456.344 278.004 430.344 224.004 427.844 206.004C428.344 226.338 411.844 274.816 378.344 283.004C333.344 294.004 306.844 283.004 279.344 251.004C280.011 270.171 269.344 314.404 221.344 338.004C173.344 361.604 116.011 322.504 93.3441 300.004C84.6774 286.171 67.1441 255.704 66.3441 244.504L52.8441 251.004C46.8441 252.171 36.6441 251.404 43.8441 239.004L119.844 167.504C108.511 189.504 93.5442 241.804 124.344 275.004C142.678 293.838 177.344 317.504 201.844 296.504C213.011 283.504 229.244 244.904 204.844 194.504C192.177 158.338 147.444 88.7044 69.8441 99.5044Z" fill="#FFF9EF"/>
<path d="M969.424 180.863L973.054 155.732L1014.1 164.884L1017.82 146.424C1033.18 185.051 1034.11 184.12 1058.31 202.735C1036.44 206.458 1010.84 226.935 999.674 248.343L999.674 228.332L963.373 219.955L966.632 199.012L991.297 202.735L994.555 185.516L969.424 180.863Z" fill="black"/>
<path d="M371.844 182.019C348.017 175.019 335.822 199.698 334.802 214.969C334.611 217.836 333.889 222.198 331.844 218.504C329.887 214.969 319.212 198.504 328.844 177.504C331.446 171.832 350.493 146.41 371.844 149.504C416.344 155.954 388.974 206.72 392.844 208.504C395.115 209.551 406.784 193.939 408.344 182.019C409.238 175.196 408.846 162.452 403.844 155.954C396.846 146.861 383.554 134.941 353.174 140.011C322.794 145.082 291.743 175.657 293.343 220.506C294.277 246.709 311.755 275.075 349.344 266.504C367.199 262.433 371.342 250.528 377.362 236.344C385.928 216.158 387.844 186.72 371.844 182.019Z" fill="black"/>
</svg>
